<?xml version="1.0" encoding="UTF-8" standalone="no"?>
<!DOCTYPE svg PUBLIC "-//W3C//DTD SVG 1.1//EN" "http://www.w3.org/Graphics/SVG/1.1/DTD/svg11.dtd">
<svg width="100%" height="100%" viewBox="0 0 128 128" version="1.1" xmlns="http://www.w3.org/2000/svg" xmlns:xlink="http://www.w3.org/1999/xlink" xml:space="preserve" xmlns:serif="http://www.serif.com/" style="fill-rule:evenodd;clip-rule:evenodd;stroke-linejoin:round;stroke-miterlimit:2;">
    <g transform="matrix(0.187786,0,0,0.187786,15.8956,15.9268)">
        <path d="M71,460L30,0L481,0L440,460L255,512" style="fill:rgb(227,79,38);fill-rule:nonzero;"/>
    </g>
    <g transform="matrix(0.187786,0,0,0.187786,15.8956,15.9268)">
        <path d="M256,472L405,431L440,37L256,37" style="fill:rgb(239,101,42);fill-rule:nonzero;"/>
    </g>
    <g transform="matrix(0.187786,0,0,0.187786,15.8956,15.9268)">
        <path d="M256,208L181,208L176,150L256,150L256,94L114,94L115,109L129,265L256,265L256,208ZM256,355L255,355L192,338L188,293L132,293L139,382L255,414L256,414L256,355Z" style="fill:rgb(235,235,235);fill-rule:nonzero;"/>
    </g>
    <g transform="matrix(0.187786,0,0,0.187786,15.8956,15.9268)">
        <path d="M255,208L255,265L325,265L318,338L255,355L255,414L371,382L372,372L385,223L387,208L255,208ZM255,94L255,150L392,150L393,138L396,109L397,94L255,94Z" style="fill:white;fill-rule:nonzero;"/>
    </g>
</svg>
