<?xml version="1.0" encoding="UTF-8" standalone="no"?>
<!DOCTYPE svg PUBLIC "-//W3C//DTD SVG 1.1//EN" "http://www.w3.org/Graphics/SVG/1.1/DTD/svg11.dtd">
<svg width="100%" height="100%" viewBox="0 0 91 128" version="1.1" xmlns="http://www.w3.org/2000/svg" xmlns:xlink="http://www.w3.org/1999/xlink" xml:space="preserve" xmlns:serif="http://www.serif.com/" style="fill-rule:evenodd;clip-rule:evenodd;stroke-linejoin:round;stroke-miterlimit:2;">
    <g transform="matrix(0.171768,0,0,0.171768,11.325,15.9478)">
        <path d="M1.334,109.332L1.396,114.332C1.431,117.082 9.398,208.133 19.101,316.666L36.744,514L116.039,536.201C159.651,548.412 196.234,558.464 197.334,558.541C198.434,558.618 235.5,548.667 279.703,536.428C350.573,516.805 360.141,513.849 360.648,511.42C361.355,508.036 396.061,116.521 396.025,112.332L396,109.332L1.334,109.332Z" style="fill:white;fill-rule:nonzero;"/>
    </g>
    <g transform="matrix(0.171768,0,0,0.171768,11.325,15.9478)">
        <path d="M116.667,537.529L36.667,515.168L35.621,509.251C34.692,503.991 0,116.516 0,111.397C0,109.544 20.256,109.333 198.667,109.333C386.99,109.333 397.333,109.455 397.318,111.667C397.255,121.22 361.346,513.825 360.464,514.607C359.349,515.594 204.507,558.732 199.333,559.497C197.867,559.714 160.667,549.828 116.667,537.529ZM249.111,458.516C276,451.1 298.388,444.65 298.862,444.183C299.336,443.716 302.483,411.833 305.854,373.333C309.226,334.833 312.325,300.783 312.741,297.667L313.497,292L197.333,292L197.333,341.333L260.051,341.333L259.427,344.333C259.084,345.983 257.75,360.163 256.463,375.843C255.1,392.458 253.483,404.993 252.588,405.888C251.744,406.732 238.966,410.644 224.193,414.582L197.333,421.741L197.333,446.871C197.333,464.022 197.792,472 198.778,472C199.572,472 222.222,465.932 249.111,458.516ZM312.732,261C311.851,254.467 304,166.837 304,163.533C304,161.526 299.384,161.333 251.333,161.333L198.667,161.333L198.667,212.921L222.333,213.833C235.35,214.335 249.049,215.098 252.775,215.53L259.55,216.314L261.195,236.49C262.1,247.587 263.177,258.917 263.59,261.667L264.341,266.667L313.497,266.667L312.732,261Z" style="fill:rgb(234,235,236);fill-rule:nonzero;"/>
    </g>
    <g transform="matrix(0.171768,0,0,0.171768,11.325,15.9478)">
        <path d="M116.039,536.201L36.744,514L19.101,316.667C9.398,208.133 1.43,117.083 1.396,114.333L1.333,109.333L396,109.333L396.026,112.333C396.061,116.522 361.355,508.037 360.648,511.421C360.14,513.85 350.573,516.806 279.703,536.429C235.5,548.669 198.433,558.62 197.333,558.542C196.233,558.465 159.651,548.412 116.039,536.201L116.039,536.201ZM249.171,459.459C276.582,451.838 299.398,444.974 299.874,444.205C300.349,443.435 303.624,409.925 307.15,369.736C310.677,329.548 313.852,295.617 314.205,294.333C314.811,292.129 310.147,292 229.691,292L144.535,292L148.161,253.667C150.155,232.583 151.835,215.279 151.893,215.212C151.952,215.145 164.45,214.747 179.667,214.326C204.618,213.637 256.071,215.627 257.793,217.348C258.436,217.991 262.667,259.499 262.667,265.165C262.667,267.959 263.044,268 288.503,268L314.339,268L313.73,262.333C313.395,259.217 311.207,235.067 308.867,208.667L304.612,160.667L204.973,160.325C125.704,160.053 105.331,160.325 105.322,161.658C105.315,162.58 104.735,168.433 104.031,174.667C102.328,189.75 89.333,335.489 89.333,339.514L89.333,342.667L258.901,342.667L258.145,347.667C257.73,350.417 256.412,364.367 255.217,378.667C254.021,392.967 252.659,405.036 252.188,405.488C250.946,406.68 201.069,420.005 197.959,419.975C196.515,419.961 183.633,416.747 169.333,412.833L143.333,405.716L142.38,394.524C141.856,388.369 141.058,379.583 140.607,375L139.788,366.667L89.333,366.667L89.389,371.667C89.494,381.017 95.557,444.001 96.438,444.882C97.456,445.9 194.35,473.137 197.333,473.244C198.433,473.283 221.76,467.08 249.171,459.459L249.171,459.459Z" style="fill:rgb(240,190,37);fill-rule:nonzero;"/>
    </g>
    <g transform="matrix(0.171768,0,0,0.171768,11.325,15.9478)">
        <path d="M116.039,536.201L36.744,514L19.101,316.667C9.398,208.133 1.43,117.083 1.396,114.333L1.333,109.333L396,109.333L396.026,112.333C396.061,116.522 361.355,508.037 360.648,511.421C360.14,513.85 350.573,516.806 279.703,536.429C235.5,548.669 198.433,558.62 197.333,558.542C196.233,558.465 159.651,548.412 116.039,536.201L116.039,536.201ZM263.913,506.5C298.794,496.875 327.989,488.325 328.789,487.5C330.036,486.216 360.161,156.046 360.04,145L360,141.333L198.667,141.333L198.667,160L152,160C115.561,160 105.331,160.365 105.322,161.667C105.315,162.583 104.735,168.433 104.031,174.667C102.328,189.75 89.333,335.489 89.333,339.514L89.333,342.667L198.667,342.667L198.667,381.333C198.667,411.391 198.296,419.994 197,419.975C196.083,419.961 183.633,416.747 169.333,412.833L143.333,405.716L142.38,394.525C141.856,388.369 141.058,379.583 140.607,375L139.788,366.667L89.333,366.667L89.389,371.667C89.549,385.968 95.736,444.346 97.187,445.243C98.069,445.788 121.262,452.452 148.728,460.053L198.667,473.871L198.667,498.936C198.667,512.721 199.078,524 199.58,524C200.082,524 229.032,516.125 263.913,506.5ZM148.02,254.025C149.937,233.139 151.767,215.814 152.086,215.525C152.405,215.236 163.017,214.713 175.667,214.363L198.667,213.727L198.667,292L144.535,292L148.02,254.025Z" style="fill:rgb(228,161,38);fill-rule:nonzero;"/>
    </g>
    <g transform="matrix(0.171768,0,0,0.171768,11.325,15.9478)">
        <path d="M126.667,74.667L126.667,49.333L162.667,49.333L162.667,0L188,0L188,74.667L126.667,74.667ZM200,74.667L200,54.667L216.667,54.667C225.833,54.667 233.333,54.328 233.333,53.914C233.333,53.499 225.833,45.032 216.667,35.097L200,17.034L200,0L269.333,0L269.333,19.918L253.059,20.292L236.784,20.667L253.726,38.911L270.667,57.155L270.667,74.667L200,74.667Z" style="fill:rgb(14,14,15);fill-rule:nonzero;"/>
    </g>
</svg>
